<svg width="108px" height="129px" viewBox="0 0 108 129" version="1.1" xmlns="http://www.w3.org/2000/svg" xmlns:xlink="http://www.w3.org/1999/xlink">
    <!-- Generator: Sketch 63.1 (92452) - https://sketch.com -->
    <title>logo</title>
    <desc>Created with Sketch.</desc>
    <g id="Page-1" stroke="none" stroke-width="1" fill="none" fill-rule="evenodd">
        <g id="Custom-Preset" fill-rule="nonzero">
            <g id="logo" >
                <path d="M21.0510869,5.71481759 L81.4952172,111.911225 C84.6016589,117.369041 82.7439129,124.339608 77.3458262,127.480422 C75.6235908,128.482485 73.670056,129.006659 71.6830172,129.000063 L21.0729133,128.826994 C9.42316601,128.7872 0,119.227525 0,107.448807 L0,11.4017647 C0,5.10474394 5.04887861,0 11.276986,0 C15.3115491,0 19.0387364,2.17924858 21.0510869,5.71481759 Z" id="Triangle" fill="#404959"></path>
                <path d="M81.4213687,70.180938 L106.376436,111.766319 C109.610297,117.155257 107.862589,124.145014 102.472821,127.378377 C100.698686,128.442694 98.6679354,129.003322 96.5989597,129.000015 L46.6523318,128.91906 C40.7596879,128.909515 35.9904956,124.125579 36,118.233842 C36.0031714,116.3031 36.5303049,114.409402 37.5252395,112.754656 L63.1278917,70.1730821 C66.1639752,65.1235581 72.7192854,63.490963 77.7695863,66.5265797 C79.2678948,67.4271771 80.5219201,68.682087 81.4213687,70.180938 Z" id="Triangle-Copy-2" fill="#15CA82" transform="translate(72.000007, 97.000007) rotate(180.000000) translate(-72.000007, -97.000007) "></path>
                <path d="M47.4010549,64.9999855 L54.802,65.0119855 L81.4952172,111.911225 C83.1885295,114.886265 83.4068286,118.310789 82.380728,121.319499 L80.8721229,123.826933 C79.0197761,126.907701 75.8574499,128.716569 72.5261711,128.969364 L72.2033002,128.988961 L72.0035514,128.996184 L72.0035514,128.996184 L71.8034011,129.000153 C69.9043909,129.014962 67.9773704,128.523481 66.2304283,127.473435 C64.7321198,126.572838 63.4780945,125.317928 62.5786459,123.819077 L37.6235784,82.2336957 C34.3897174,76.8447577 36.1374254,69.8550007 41.5271934,66.6216377 C43.3013284,65.5573207 45.3320792,64.9966927 47.4010549,64.9999855 Z" id="Path" fill="#404959" opacity="0.43896775"></path>
            </g>
        </g>
    </g>
</svg>